<svg id="Layer_1" data-name="Layer 1" xmlns="http://www.w3.org/2000/svg" viewBox="0 0 50 50"><defs><style>.cls-1{fill:#3c5a98;}.cls-2{fill:#fcfdfd;}.cls-3{fill:#fbfcfd;}.cls-4{fill:#fdfdfe;}.cls-5{fill:#305092;}.cls-6{fill:#294b8e;}.cls-7{fill:#2e4f91;}.cls-8{fill:#304f93;}.cls-9{fill:#d3d7e8;}</style></defs><title>Social Icon</title><g id="gcPqOq.tif"><path class="cls-1" d="M10,38.43V11.62c0-.06.06-.12.08-.18a2.09,2.09,0,0,1,1.22-1.34l.41-.16H38.39l.11.05a2.1,2.1,0,0,1,1.61,2.1V38A2.09,2.09,0,0,1,38,40.11H30.68l0-.08a1,1,0,0,0,.07-.2V27.53a1,1,0,0,0-.08-.28c0-.14,0-.19.15-.18,1.06,0,2.11,0,3.17,0,.23,0,.29-.08.31-.29.08-.84.18-1.69.27-2.53.06-.56.11-1.11.16-1.67a.94.94,0,0,0-.22-.07H30.94a.87.87,0,0,0-.22.05s0-.05,0-.07c0-.86,0-1.72,0-2.58a2.16,2.16,0,0,1,.17-.8A1.13,1.13,0,0,1,32,18.55c.83,0,1.65,0,2.47,0,.3,0,.3,0,.3-.31V14.34c0-.3,0-.3-.3-.3H31.16a.38.38,0,0,0-.45,0c-.61.09-1.23.14-1.83.27A4.19,4.19,0,0,0,26.8,15.4a4.85,4.85,0,0,0-1.42,3.27c-.08,1.25-.06,2.5-.07,3.75,0,.15-.06.17-.18.17H22.82c-.18,0-.22.06-.22.23q0,2,0,4c0,.2.06.25.25.24h2.3l.14.13c0,.08,0,.15,0,.23V39.82a2.71,2.71,0,0,1,0,.29H12.07a2.09,2.09,0,0,1-2-1.5C10,38.55,10,38.49,10,38.43Z"/><path class="cls-2" d="M10,38.43c0,.06.06.12.08.18a2.09,2.09,0,0,0,2,1.5H38A2.09,2.09,0,0,0,40.11,38V12.09A2.1,2.1,0,0,0,38.5,10l-.11-.05h1.76V40.15H10Z"/><path class="cls-3" d="M11.66,9.94l-.41.16A2.09,2.09,0,0,0,10,11.44c0,.06-.06.12-.08.18V9.94Z"/><path class="cls-4" d="M25.35,40.11h-.06a2.71,2.71,0,0,0,0-.29V27.44c0-.08,0-.15,0-.23s0-.16-.14-.13h-2.3c-.19,0-.25,0-.25-.24q0-2,0-4c0-.17,0-.23.22-.23h2.31c.12,0,.18,0,.18-.17,0-1.25,0-2.5.07-3.75A4.85,4.85,0,0,1,26.8,15.4a4.19,4.19,0,0,1,2.08-1.09c.6-.13,1.22-.18,1.83-.27h3.73c.3,0,.3,0,.3.3v3.88c0,.31,0,.31-.3.31-.82,0-1.64,0-2.47,0a1.13,1.13,0,0,0-1.09.57,2.16,2.16,0,0,0-.17.8c0,.86,0,1.72,0,2.58,0,0,0,0,0,.07l.1,0h3.93c0,.56-.1,1.11-.16,1.67-.09.84-.19,1.69-.27,2.53,0,.21-.08.29-.31.29-1.06,0-2.11,0-3.17,0-.15,0-.18,0-.15.18V39.84a1.28,1.28,0,0,0,0,.19l0,.08h-.07a2.17,2.17,0,0,0-.25,0H25.61A2,2,0,0,0,25.35,40.11Z"/><path class="cls-5" d="M30.7,40a1.28,1.28,0,0,1,0-.19V27.25a1,1,0,0,1,.08.28v12.3A1,1,0,0,1,30.7,40Z"/><path class="cls-6" d="M34.75,22.59H30.82l-.1,0a.87.87,0,0,1,.22-.05h3.59A.94.94,0,0,1,34.75,22.59Z"/><path class="cls-7" d="M31.16,14h-.45A.38.38,0,0,1,31.16,14Z"/><path class="cls-8" d="M25.15,27.08c.11,0,.19,0,.14.13Z"/><path class="cls-9" d="M25.35,40.11a2,2,0,0,1,.26,0h4.75a2.17,2.17,0,0,1,.25,0Z"/></g></svg>