<svg id="Layer_1" data-name="Layer 1" xmlns="http://www.w3.org/2000/svg" xmlns:xlink="http://www.w3.org/1999/xlink" viewBox="0 0 50 50"><defs><style>.cls-1{fill:url(#linear-gradient);}.cls-2{fill:url(#linear-gradient-2);}.cls-3{fill:url(#linear-gradient-3);}</style><linearGradient id="linear-gradient" x1="14.2" y1="36.47" x2="35.36" y2="14.05" gradientUnits="userSpaceOnUse"><stop offset="0" stop-color="#f8d402"/><stop offset="0.25" stop-color="#f84002"/><stop offset="0.5" stop-color="#e80a23"/><stop offset="0.75" stop-color="#af3790"/><stop offset="1" stop-color="#7a39ad"/></linearGradient><linearGradient id="linear-gradient-2" x1="14.41" y1="36.67" x2="35.58" y2="14.25" xlink:href="#linear-gradient"/><linearGradient id="linear-gradient-3" x1="14.8" y1="37.04" x2="35.97" y2="14.62" xlink:href="#linear-gradient"/></defs><title>Social Icon</title><g id="MrkVGb.tif"><path class="cls-1" d="M17.68,9.94h14.7l.45,0a8.28,8.28,0,0,1,2.93.83,8,8,0,0,1,2.45,1.94,7.79,7.79,0,0,1,1.16,1.8,7.51,7.51,0,0,1,.72,3.19q0,7.28,0,14.56a7.23,7.23,0,0,1-.25,1.85,8,8,0,0,1-1,2.28,8.25,8.25,0,0,1-1.64,1.85,7.89,7.89,0,0,1-2.54,1.4,6.93,6.93,0,0,1-2.17.39H17.75c-.3,0-.6,0-.9-.07a7.93,7.93,0,0,1-2.73-.87,8.1,8.1,0,0,1-2.36-1.95,7.83,7.83,0,0,1-1.37-2.44A7.29,7.29,0,0,1,10,32.37V17.86c0-.31,0-.62.06-.93a7.5,7.5,0,0,1,.88-2.81,8,8,0,0,1,2-2.42,7.87,7.87,0,0,1,1.78-1.09A7.78,7.78,0,0,1,17.11,10ZM25.24,13H19.73l-.51,0a6.73,6.73,0,0,0-2.52.74,6.91,6.91,0,0,0-3.36,4A7.08,7.08,0,0,0,13,19.91V30.52a7,7,0,0,0,.46,2.53A6.72,6.72,0,0,0,15,35.37a6.65,6.65,0,0,0,1.91,1.36,6.83,6.83,0,0,0,2.91.68H30.6a6.81,6.81,0,0,0,4.93-2.1,6.75,6.75,0,0,0,1.31-1.92,6.1,6.1,0,0,0,.6-2.58c0-3.72,0-7.43,0-11.15a6,6,0,0,0-.08-.94,6.92,6.92,0,0,0-.71-2.11,7,7,0,0,0-3.28-3A6.19,6.19,0,0,0,30.83,13Z"/><path class="cls-2" d="M25.23,35.67H19.81a4.91,4.91,0,0,1-3.17-1.14A5,5,0,0,1,15,32a4.41,4.41,0,0,1-.18-1.2c0-2.68,0-5.35,0-8V20A6,6,0,0,1,15,18.31a5.13,5.13,0,0,1,3.54-3.4,4.59,4.59,0,0,1,1.17-.17H30.82a4.56,4.56,0,0,1,1.82.41,4.89,4.89,0,0,1,1.88,1.4,5.06,5.06,0,0,1,1.17,2.78c0,.11,0,.21,0,.32V30.54A5.07,5.07,0,0,1,35.12,33a5,5,0,0,1-2.59,2.35,4.85,4.85,0,0,1-1.88.37Zm6.44-9.15c0-4.08-2.81-6.94-6.3-7a6.36,6.36,0,0,0-6.44,6.13,6.39,6.39,0,0,0,6.37,6.61,6.15,6.15,0,0,0,4.34-1.71A6,6,0,0,0,31.67,26.52ZM32,17.39a1.12,1.12,0,0,0-1.14,1.13,1.14,1.14,0,1,0,2.28,0A1.12,1.12,0,0,0,32,17.39Z"/><path class="cls-3" d="M20.66,25.92a4.64,4.64,0,1,1,4.62,4.64A4.63,4.63,0,0,1,20.66,25.92Z"/></g></svg>